HIERARCHY
ROOT Hips
{
    OFFSET 0.000000 0.000000 0.000000
    CHANNELS 6 Xposition Yposition Zposition Zrotation Xrotation Yrotation
    JOINT Spine
    {
        OFFSET -0.000000 7.284621 0.000000
        CHANNELS 3 Zrotation Xrotation Yrotation
        JOINT Spine1
        {
            OFFSET -0.000000 19.968920 0.000000
            CHANNELS 3 Zrotation Xrotation Yrotation
            JOINT Neck
            {
                OFFSET -0.000000 21.745657 0.000000
                CHANNELS 3 Zrotation Xrotation Yrotation
                JOINT Head
                {
                    OFFSET -0.000000 13.769711 1.776737
                    CHANNELS 3 Zrotation Xrotation Yrotation
                    End Site
                    {
                        OFFSET -0.000000 17.767368 0.000000
                    }
                }
            }
            JOINT LeftShoulder
            {
                OFFSET 3.594505 17.711157 -0.013107
                CHANNELS 3 Zrotation Xrotation Yrotation
                JOINT LeftArm
                {
                    OFFSET 12.210003 0.000000 0.000000
                    CHANNELS 3 Zrotation Xrotation Yrotation
                    JOINT LeftForeArm
                    {
                        OFFSET 24.535166 0.000000 0.000000
                        CHANNELS 3 Zrotation Xrotation Yrotation
                        JOINT LeftHand
                        {
                            OFFSET 20.235195 0.000000 0.000000
                            CHANNELS 3 Zrotation Xrotation Yrotation
                            JOINT LeftHandThumb1
                            {
                                OFFSET 1.906737 -2.166747 3.033446
                                CHANNELS 3 Zrotation Xrotation Yrotation
                                JOINT LeftHandThumb2
                                {
                                    OFFSET 2.043247 0.000000 1.332553
                                    CHANNELS 3 Zrotation Xrotation Yrotation
                                    JOINT LeftHandThumb3
                                    {
                                        OFFSET 2.665105 0.000000 0.000000
                                        CHANNELS 3 Zrotation Xrotation Yrotation
                                        End Site
                                        {
                                            OFFSET 2.367595 0.000000 0.000000
                                        }
                                    }
                                }
                            }
                            JOINT LeftHandIndex1
                            {
                                OFFSET 7.800290 0.000000 3.033446
                                CHANNELS 3 Zrotation Xrotation Yrotation
                                JOINT LeftHandIndex2
                                {
                                    OFFSET 4.441842 0.000000 0.000000
                                    CHANNELS 3 Zrotation Xrotation Yrotation
                                    JOINT LeftHandIndex3
                                    {
                                        OFFSET 2.220921 0.000000 0.000000
                                        CHANNELS 3 Zrotation Xrotation Yrotation
                                        End Site
                                        {
                                            OFFSET 1.972996 0.000000 0.000000
                                        }
                                    }
                                }
                            }
                            JOINT LeftHandMiddle1
                            {
                                OFFSET 7.800290 0.000000 1.005371
                                CHANNELS 3 Zrotation Xrotation Yrotation
                                JOINT LeftHandMiddle2
                                {
                                    OFFSET 4.886026 0.000000 0.000000
                                    CHANNELS 3 Zrotation Xrotation Yrotation
                                    JOINT LeftHandMiddle3
                                    {
                                        OFFSET 2.665105 0.000000 0.000000
                                        CHANNELS 3 Zrotation Xrotation Yrotation
                                        End Site
                                        {
                                            OFFSET 2.367595 0.000000 0.000000
                                        }
                                    }
                                }
                            }
                            JOINT LeftHandRing1
                            {
                                OFFSET 7.366940 0.000000 -1.005371
                                CHANNELS 3 Zrotation Xrotation Yrotation
                                JOINT LeftHandRing2
                                {
                                    OFFSET 4.441842 0.000000 0.000000
                                    CHANNELS 3 Zrotation Xrotation Yrotation
                                    JOINT LeftHandRing3
                                    {
                                        OFFSET 2.220921 0.000000 0.000000
                                        CHANNELS 3 Zrotation Xrotation Yrotation
                                        End Site
                                        {
                                            OFFSET 1.972996 0.000000 0.000000
                                        }
                                    }
                                }
                            }
                            JOINT LeftHandPinky1
                            {
                                OFFSET 6.933591 0.000000 -3.033446
                                CHANNELS 3 Zrotation Xrotation Yrotation
                                JOINT LeftHandPinky2
                                {
                                    OFFSET 3.553473 0.000000 0.000000
                                    CHANNELS 3 Zrotation Xrotation Yrotation
                                    JOINT LeftHandPinky3
                                    {
                                        OFFSET 1.776737 0.000000 0.000000
                                        CHANNELS 3 Zrotation Xrotation Yrotation
                                        End Site
                                        {
                                            OFFSET 1.578397 0.000000 0.000000
                                        }
                                    }
                                }
                            }
                        }
                    }
                }
            }
            JOINT RightShoulder
            {
                OFFSET -3.500468 17.711157 -0.013107
                CHANNELS 3 Zrotation Xrotation Yrotation
                JOINT RightArm
                {
                    OFFSET -12.210003 0.000000 0.000000
                    CHANNELS 3 Zrotation Xrotation Yrotation
                    JOINT RightForeArm
                    {
                        OFFSET -24.535166 0.000000 0.000000
                        CHANNELS 3 Zrotation Xrotation Yrotation
                        JOINT RightHand
                        {
                            OFFSET -20.235195 0.000000 0.000000
                            CHANNELS 3 Zrotation Xrotation Yrotation
                            JOINT RightHandThumb1
                            {
                                OFFSET -1.906737 -2.166747 3.033446
                                CHANNELS 3 Zrotation Xrotation Yrotation
                                JOINT RightHandThumb2
                                {
                                    OFFSET -2.043247 0.000000 1.332553
                                    CHANNELS 3 Zrotation Xrotation Yrotation
                                    JOINT RightHandThumb3
                                    {
                                        OFFSET -2.665105 0.000000 0.000000
                                        CHANNELS 3 Zrotation Xrotation Yrotation
                                        End Site
                                        {
                                            OFFSET -2.367595 0.000000 0.000000
                                        }
                                    }
                                }
                            }
                            JOINT RightHandIndex1
                            {
                                OFFSET -7.800290 0.000000 3.033446
                                CHANNELS 3 Zrotation Xrotation Yrotation
                                JOINT RightHandIndex2
                                {
                                    OFFSET -4.441842 0.000000 0.000000
                                    CHANNELS 3 Zrotation Xrotation Yrotation
                                    JOINT RightHandIndex3
                                    {
                                        OFFSET -2.220921 0.000000 0.000000
                                        CHANNELS 3 Zrotation Xrotation Yrotation
                                        End Site
                                        {
                                            OFFSET -1.972996 0.000000 0.000000
                                        }
                                    }
                                }
                            }
                            JOINT RightHandMiddle1
                            {
                                OFFSET -7.800290 0.000000 1.005371
                                CHANNELS 3 Zrotation Xrotation Yrotation
                                JOINT RightHandMiddle2
                                {
                                    OFFSET -4.886026 0.000000 0.000000
                                    CHANNELS 3 Zrotation Xrotation Yrotation
                                    JOINT RightHandMiddle3
                                    {
                                        OFFSET -2.665105 0.000000 0.000000
                                        CHANNELS 3 Zrotation Xrotation Yrotation
                                        End Site
                                        {
                                            OFFSET -2.367595 0.000000 0.000000
                                        }
                                    }
                                }
                            }
                            JOINT RightHandRing1
                            {
                                OFFSET -7.366940 0.000000 -1.005371
                                CHANNELS 3 Zrotation Xrotation Yrotation
                                JOINT RightHandRing2
                                {
                                    OFFSET -4.441842 0.000000 0.000000
                                    CHANNELS 3 Zrotation Xrotation Yrotation
                                    JOINT RightHandRing3
                                    {
                                        OFFSET -2.220921 0.000000 0.000000
                                        CHANNELS 3 Zrotation Xrotation Yrotation
                                        End Site
                                        {
                                            OFFSET -1.972996 0.000000 0.000000
                                        }
                                    }
                                }
                            }
                            JOINT RightHandPinky1
                            {
                                OFFSET -6.933591 0.000000 -3.033446
                                CHANNELS 3 Zrotation Xrotation Yrotation
                                JOINT RightHandPinky2
                                {
                                    OFFSET -3.553473 0.000000 0.000000
                                    CHANNELS 3 Zrotation Xrotation Yrotation
                                    JOINT RightHandPinky3
                                    {
                                        OFFSET -1.776737 0.000000 0.000000
                                        CHANNELS 3 Zrotation Xrotation Yrotation
                                        End Site
                                        {
                                            OFFSET -1.578397 0.000000 0.000000
                                        }
                                    }
                                }
                            }
                        }
                    }
                }
            }
        }
    }
    JOINT LeftUpLeg
    {
        OFFSET 8.883684 0.000000 0.000000
        CHANNELS 3 Zrotation Xrotation Yrotation
        JOINT LeftLeg
        {
            OFFSET -0.000000 -38.184189 0.000000
            CHANNELS 3 Zrotation Xrotation Yrotation
            JOINT LeftFoot
            {
                OFFSET -0.000000 -35.840691 0.000000
                CHANNELS 3 Zrotation Xrotation Yrotation
                JOINT LeftToeBase
                {
                    OFFSET -0.000000 -5.774395 13.325527
                    CHANNELS 3 Zrotation Xrotation Yrotation
                    End Site
                    {
                        OFFSET -0.000000 0.000000 3.553473
                    }
                }
            }
        }
    }
    JOINT RightUpLeg
    {
        OFFSET -8.883684 0.000000 0.000000
        CHANNELS 3 Zrotation Xrotation Yrotation
        JOINT RightLeg
        {
            OFFSET -0.000000 -38.184189 0.000000
            CHANNELS 3 Zrotation Xrotation Yrotation
            JOINT RightFoot
            {
                OFFSET -0.000000 -35.840691 0.000000
                CHANNELS 3 Zrotation Xrotation Yrotation
                JOINT RightToeBase
                {
                    OFFSET -0.000000 -5.774395 13.325527
                    CHANNELS 3 Zrotation Xrotation Yrotation
                    End Site
                    {
                        OFFSET -0.000000 0.000000 3.553473
                    }
                }
            }
        }
    }
}
MOTION
Frames:    4
Frame Time:    0.008333
9.439554    81.393417    122.139725    1.671069    -1.660064    3.934346    -2.592140    -0.278210    -1.726918    -0.344821    5.934412    -0.554426    5.017127    -0.050445    4.411212    2.442131    0.440073    4.901782    2.292194    6.998464    -9.843068    -77.851440    36.520584    -9.401395    5.516984    -7.870306    4.562628    -15.666072    -39.923019    -9.345343    3.831789    0.680004    5.456796    -0.000000    0.000000    4.168637    -0.000000    0.000000    8.337274    -9.308968    0.975784    -5.931348    -18.719044    0.000000    0.000000    -9.359521    0.000000    0.000000    -15.112408    -0.398832    -0.672411    -30.233374    0.000000    0.000000    -15.116687    0.000000    0.000000    -20.769590    -2.291958    4.424326    -41.747692    0.000000    0.000000    -20.873844    0.000000    0.000000    -26.411966    -4.750068    9.465906    -53.610935    0.000000    0.000000    -26.805468    0.000000    0.000000    -3.070722    -1.420631    3.376452    87.489365    49.779022    -3.489498    -3.705156    -19.250443    2.613914    18.310005    -53.713436    10.272200    -1.121714    -0.200311    -0.505492    0.000000    0.000000    -0.495564    0.000000    0.000000    -0.991129    8.038367    0.000000    -0.000000    16.076733    0.000000    -0.000000    8.038367    0.000000    -0.000000    15.286706    0.000000    -0.000000    30.573412    0.000000    -0.000000    15.286706    0.000000    -0.000000    22.535044    0.000000    -0.000000    45.070087    0.000000    -0.000000    22.535044    0.000000    -0.000000    30.003027    0.000000    -0.000000    60.006042    0.000000    -0.000000    30.003027    0.000000    -0.000000    -4.281660    -3.691011    -1.599441    -0.019064    14.158255    0.259105    2.513165    -8.280543    7.798698    0.070204    0.670640    0.050793    -3.285953    -1.614033    1.338180    1.142388    10.723390    -2.235179    0.017305    -6.915782    -9.966663    -0.050157    -0.092670    0.089006    
9.439919    81.393089    122.142723    1.673610    -1.651134    3.935414    -2.576507    -0.273672    -1.719264    -0.378850    5.965789    -0.549996    5.011203    -0.051327    4.368608    2.441544    0.370625    4.858474    2.304606    6.997127    -9.859056    -77.869804    36.497169    -9.394391    5.531809    -7.911759    4.535469    -15.743339    -39.931107    -9.391064    3.827607    0.649103    5.407524    -0.000000    0.000000    4.109429    -0.000000    0.000000    8.218860    -9.330689    0.981881    -5.954100    -18.763510    0.000000    0.000000    -9.381755    0.000000    0.000000    -15.134481    -0.391315    -0.698066    -30.277145    0.000000    0.000000    -15.138569    0.000000    0.000000    -20.792204    -2.282776    4.395887    -41.790768    0.000000    0.000000    -20.895386    0.000000    0.000000    -26.435369    -4.738957    9.434713    -53.653301    0.000000    0.000000    -26.826651    0.000000    0.000000    -3.069792    -1.430160    3.386269    87.519791    49.788509    -3.511058    -3.712710    -19.270184    2.637125    18.304445    -53.730049    10.279236    -1.117985    -0.197176    -0.507965    0.000000    0.000000    -0.498926    0.000000    0.000000    -0.997851    8.042566    0.000000    -0.000000    16.085133    0.000000    -0.000000    8.042566    0.000000    -0.000000    15.291130    0.000000    -0.000000    30.582262    0.000000    -0.000000    15.291130    0.000000    -0.000000    22.539692    0.000000    -0.000000    45.079388    0.000000    -0.000000    22.539692    0.000000    -0.000000    30.007906    0.000000    -0.000000    60.015816    0.000000    -0.000000    30.007906    0.000000    -0.000000    -4.282663    -3.703878    -1.587320    -0.021046    14.170822    0.247876    2.513778    -8.289377    7.797038    0.070508    0.674428    0.051309    -3.288443    -1.623778    1.333736    1.140642    10.730440    -2.245420    0.019229    -6.920949    -9.951631    -0.051555    -0.095432    0.091497    
9.440442    81.392906    122.145988    1.676262    -1.641840    3.936160    -2.560970    -0.270344    -1.711393    -0.412867    5.997938    -0.545563    5.005514    -0.051511    4.326039    2.441609    0.300073    4.815171    2.315132    6.993780    -9.875479    -77.887451    36.475201    -9.386645    5.545300    -7.950758    4.509557    -15.809200    -39.933994    -9.428995    3.831215    0.622054    5.372444    -0.000000    0.000000    4.066079    -0.000000    0.000000    8.132159    -9.354828    0.988670    -5.979334    -18.812927    0.000000    0.000000    -9.406464    0.000000    0.000000    -15.158211    -0.383394    -0.725179    -30.324238    0.000000    0.000000    -15.162121    0.000000    0.000000    -20.815678    -2.273513    4.367008    -41.835545    0.000000    0.000000    -20.917772    0.000000    0.000000    -26.458731    -4.728122    9.404129    -53.695690    0.000000    0.000000    -26.847845    0.000000    0.000000    -3.066017    -1.437217    3.394270    87.542885    49.800171    -3.527932    -3.719429    -19.289682    2.660656    18.302917    -53.746742    10.290217    -1.116271    -0.194374    -0.511384    0.000000    0.000000    -0.502688    0.000000    0.000000    -1.005376    8.045568    0.000000    -0.000000    16.091135    0.000000    -0.000000    8.045568    0.000000    -0.000000    15.294168    0.000000    -0.000000    30.588343    0.000000    -0.000000    15.294168    0.000000    -0.000000    22.542770    0.000000    -0.000000    45.085556    0.000000    -0.000000    22.542770    0.000000    -0.000000    30.011030    0.000000    -0.000000    60.022060    0.000000    -0.000000    30.011030    0.000000    -0.000000    -4.284243    -3.717392    -1.576010    -0.022609    14.184525    0.235883    2.514681    -8.298696    7.797589    0.070840    0.676802    0.051273    -3.291708    -1.634670    1.331773    1.140333    10.739571    -2.250513    0.020207    -6.927028    -9.944568    -0.052392    -0.097987    0.093024    
9.441221    81.392899    122.149887    1.679160    -1.632775    3.936340    -2.546076    -0.268029    -1.703604    -0.445743    6.030642    -0.541198    4.999033    -0.051271    4.284247    2.443766    0.230466    4.772313    2.322712    6.988318    -9.891050    -77.903656    36.455757    -9.379913    5.556739    -7.984764    4.486642    -15.857758    -39.928356    -9.455368    3.846969    0.599824    5.357737    -0.000000    0.000000    4.045772    -0.000000    0.000000    8.091544    -9.383865    0.996260    -6.006054    -18.872261    0.000000    0.000000    -9.436131    0.000000    0.000000    -15.184620    -0.374932    -0.753396    -30.376669    0.000000    0.000000    -15.188338    0.000000    0.000000    -20.839563    -2.263803    4.337451    -41.881081    0.000000    0.000000    -20.940544    0.000000    0.000000    -26.480156    -4.716781    9.373392    -53.734119    0.000000    0.000000    -26.867060    0.000000    0.000000    -3.059544    -1.440402    3.400951    87.556396    49.813900    -3.537866    -3.725340    -19.309336    2.683472    18.305996    -53.761513    10.305041    -1.117054    -0.192264    -0.515497    0.000000    0.000000    -0.506475    0.000000    0.000000    -1.012949    8.046373    0.000000    -0.000000    16.092749    0.000000    -0.000000    8.046373    0.000000    -0.000000    15.295500    0.000000    -0.000000    30.590994    0.000000    -0.000000    15.295500    0.000000    -0.000000    22.544624    0.000000    -0.000000    45.089260    0.000000    -0.000000    22.544624    0.000000    -0.000000    30.013418    0.000000    -0.000000    60.026836    0.000000    -0.000000    30.013418    0.000000    -0.000000    -4.286740    -3.730839    -1.565757    -0.023429    14.199693    0.221920    2.515924    -8.308730    7.801972    0.071182    0.678034    0.050819    -3.295475    -1.645184    1.332539    1.140438    10.749320    -2.249352    0.020543    -6.933689    -9.946599    -0.052595    -0.100040    0.093450    
